<svg width="214" height="40" viewBox="0 0 214 40" fill="none" xmlns="http://www.w3.org/2000/svg">
<path d="M1.76599 0.12705C1.39755 0.266805 0.559019 1.13074 0.254099 1.65165C0 2.09632 0 2.33771 0 20.0103V37.9243L0.279509 38.4452C0.597133 39.0424 1.44837 39.8555 1.86763 39.9571C2.03279 39.9952 17.7107 40.0079 36.7301 39.9952L71.3003 39.9571L71.7577 39.576C72.0118 39.36 72.3929 38.8518 72.5962 38.4452L72.99 37.6956V20.0103V2.32501L72.6089 1.57542C72.3294 1.0291 72.0626 0.711479 71.6179 0.40656L71.0081 8.12812e-07L36.5141 0.0127058C17.5456 0.0127058 1.91845 0.0635256 1.76599 0.12705ZM69.8773 20.0103V36.5268L53.9707 36.5649L38.0514 36.5903V22.8689V9.14758H41.9645L45.8649 9.13487L46.9067 7.90249C47.4785 7.22913 48.101 6.49224 48.2916 6.28896C48.9268 5.56478 49.2317 5.1201 49.2317 4.91682C49.2317 4.71354 48.2408 4.70084 36.0821 4.70084C23.339 4.70084 22.9325 4.71354 22.9325 4.94223C22.9325 5.14551 23.1993 5.56478 23.6312 6.04756C23.6948 6.1365 24.2665 6.86068 24.9017 7.6738L26.0325 9.14758H30.4538H34.8751V22.8689V36.5903L18.9685 36.5649L3.04919 36.5268L3.01108 20.1374C2.99837 11.1168 3.01108 3.67174 3.04919 3.5828C3.08731 3.45575 9.84635 3.43034 36.4887 3.45575L69.8773 3.49387V20.0103Z" fill="#F7FCFF"/>
<path d="M6.28906 11.1168V13.3402H14.7125C22.5895 13.3402 23.174 13.3529 23.7965 13.5816C24.165 13.7086 24.5334 13.8738 24.6223 13.9627C24.6986 14.0389 24.8129 14.1025 24.8764 14.1025C25.1305 14.1025 26.0834 14.9918 26.5281 15.6525C27.9891 17.7615 28.383 21.8017 27.4047 24.5205C26.9219 25.8673 25.7785 27.2394 24.6986 27.7857C23.0977 28.5734 23.7076 28.5226 16.6182 28.5607L10.1006 28.5988V25.8673V23.123H15.3731H20.6457V20.9631V18.8033H13.4674H6.28906V25.8673V32.9185L15.4112 32.8677C25.3592 32.8169 24.851 32.855 26.49 32.0419C27.392 31.5972 27.6461 31.4447 28.1289 31.0636C30.365 29.3103 31.5847 26.7312 31.9531 23.0086C32.5248 17.2279 31.1019 12.8701 27.8875 10.5959C26.833 9.8463 25.9945 9.47785 24.5461 9.13482C23.6186 8.90613 22.9453 8.89342 14.9157 8.89342H6.28906V11.1168Z" fill="#F7FCFF"/>
<path d="M48.0883 9.084C48.0883 9.18564 47.974 9.27457 47.8469 9.27457C47.5039 9.27457 45.8141 10.0623 45.0772 10.5578C43.7559 11.4598 42.4473 13.1623 41.8375 14.7885C40.6432 17.9267 40.5289 22.6402 41.558 26.0451C41.9264 27.2394 42.5871 28.6624 43.108 29.3484C43.794 30.2632 45.5346 31.7624 45.9158 31.7624C45.9666 31.7624 46.0682 31.8259 46.1572 31.9148C46.3096 32.0673 46.767 32.2452 47.8977 32.6136C48.4568 32.7915 49.6764 32.8296 57.5916 32.8677L66.6376 32.9185V25.8546V18.8033H59.4593H52.281V20.9631V23.123H57.5535H62.8261V25.8673V28.5988L56.3847 28.5607C49.1174 28.5099 49.4223 28.548 47.8215 27.4935C46.8941 26.8837 46.5383 26.4771 45.9285 25.3464C45.2678 24.114 45.0518 23.0595 45.0391 21.0394C45.0391 18.6635 45.4457 17.0881 46.424 15.6525C47.1482 14.598 47.8723 14.0516 49.2191 13.5816C49.867 13.3529 50.3879 13.3402 58.2777 13.3402H66.6376V11.1168V8.89342H57.3629C49.2064 8.89342 48.0883 8.91883 48.0883 9.084Z" fill="#F7FCFF"/>
<path d="M126.986 33.033H129.146V24.5206H126.986V33.033Z" fill="#F7FCFF"/>
<path d="M131.052 28.3448C131.052 32.0928 131.09 32.2834 131.928 32.7534C132.36 32.9948 132.615 33.033 133.961 33.033H135.499V31.0383L134.469 30.962C133.809 30.9239 133.39 30.835 133.326 30.7207C133.262 30.6317 133.212 30.1743 133.212 29.6916V28.8403H135.499V26.8075H133.212V25.0288H131.052V28.3448Z" fill="#F7FCFF"/>
<path d="M85.9873 27.1251C83.7894 28.1161 83.7639 31.5973 85.9492 32.6772C86.6099 33.0075 86.7369 33.0203 88.5283 33.033H90.3959V30.8731H89.1127C87.4865 30.8731 86.9021 30.7079 86.6988 30.1998C86.3558 29.3739 87.1053 28.9674 89.0365 28.9674H90.3959V26.8075L88.5283 26.8202C86.8385 26.8202 86.5844 26.8456 85.9873 27.1251Z" fill="#F7FCFF"/>
<path d="M93.4832 27.1251C91.2853 28.1161 91.2599 31.5973 93.4451 32.6772C94.0677 32.9821 94.2964 33.0203 95.4398 33.033C97.3328 33.033 97.9935 32.7662 98.7812 31.6354C99.0734 31.2289 99.0988 31.0637 99.0988 29.9202C99.0988 28.5989 99.0099 28.3575 98.2603 27.5317C97.5615 26.7694 94.7792 26.528 93.4832 27.1251ZM96.5324 29.285C96.7865 29.4502 96.8755 29.6153 96.8755 29.9329C96.8755 30.6571 95.9607 31.0383 94.9062 30.7461C94.4869 30.6317 94.3218 30.5047 94.1947 30.2125C94.0041 29.7424 94.1185 29.501 94.7283 29.1834C95.2492 28.9038 96.0369 28.9547 96.5324 29.285Z" fill="#F7FCFF"/>
<path d="M100.941 33.033H103.101V28.942L104.168 28.9801C105.756 29.0563 105.769 29.0817 105.769 31.2797V33.033H108.081L108.03 30.835C107.98 28.4084 107.853 27.9383 107.116 27.392C106.43 26.8838 105.972 26.8075 103.406 26.8075H100.941V33.033Z" fill="#F7FCFF"/>
<path d="M110.597 26.9727C109.339 27.5444 109.212 29.5264 110.368 30.3649C110.876 30.7334 110.914 30.7461 112.49 30.7461C113.57 30.7461 114.027 30.7842 113.9 30.8731C113.798 30.9366 112.808 31.0002 111.715 31.0002H109.707V33.033H112.312C114.929 33.033 115.323 32.9821 115.831 32.5248C116.619 31.8133 116.378 29.8694 115.437 29.3104C115.145 29.1325 114.739 29.0944 113.367 29.0817C112.312 29.0817 111.766 29.0309 111.931 28.9674C112.071 28.9038 113.062 28.853 114.129 28.853L116.06 28.8403V26.8075L113.494 26.8202C111.829 26.8202 110.8 26.871 110.597 26.9727Z" fill="#F7FCFF"/>
<path d="M117.864 29.1198C117.902 31.61 117.94 31.7498 118.639 32.4104C119.147 32.8932 119.783 33.033 121.396 33.033C123.01 33.033 123.645 32.8932 124.191 32.3977C124.877 31.7879 125.004 31.2924 125.055 28.9293L125.106 26.8075H122.794V28.4465C122.794 29.3485 122.755 30.187 122.717 30.3014C122.425 31.0383 120.367 31.0383 120.075 30.3014C120.037 30.187 119.999 29.3485 119.999 28.4465V26.8075H117.813L117.864 29.1198Z" fill="#F7FCFF"/>
<path d="M137.62 24.7493C137.315 25.0797 137.328 26.185 137.633 26.4645C137.925 26.7313 139.018 26.744 139.361 26.4899C139.729 26.2104 139.78 25.2956 139.437 24.8637C139.196 24.5715 139.069 24.5206 138.497 24.5206C138.001 24.5206 137.773 24.5842 137.62 24.7493Z" fill="#F7FCFF"/>
<path d="M137.404 33.033H139.564V26.8075H137.404V33.033Z" fill="#F7FCFF"/>
<path d="M141.597 33.033H143.757V28.942L144.824 28.9801C146.412 29.0563 146.425 29.0817 146.425 31.2797V33.033H148.737L148.686 30.835C148.636 28.4084 148.508 27.9383 147.772 27.392C147.086 26.8838 146.628 26.8075 144.062 26.8075H141.597V33.033Z" fill="#F7FCFF"/>
<path d="M152.333 26.96C151.367 27.2776 151.062 27.5317 150.617 28.3575C150.427 28.7006 150.363 29.0817 150.363 29.7424C150.363 30.9366 150.656 31.5592 151.481 32.1182C152.079 32.5248 152.104 32.5248 153.578 32.5248H155.064V30.276L154.365 30.3395C153.108 30.4411 152.383 30.1235 152.599 29.5518C152.727 29.2342 153.718 28.9293 154.391 29.0055C155.293 29.1071 155.445 29.3612 155.445 30.8096C155.445 31.4702 155.395 32.1436 155.331 32.3088C155.179 32.7026 154.607 32.9059 153.654 32.9059H152.904V35.0912L154.467 35.0531C155.928 35.0022 156.068 34.9768 156.563 34.6592C157.478 34.0494 157.542 33.8207 157.542 31.0002C157.542 28.8911 157.504 28.4592 157.313 28.0526C157.072 27.5317 156.627 27.176 155.966 26.96C155.445 26.7821 152.866 26.7821 152.333 26.96Z" fill="#F7FCFF"/>
<path d="M163.831 28.9674L167.706 29.0182L166.156 29.0817C164.491 29.1579 164.085 29.3104 163.742 29.9965C163.538 30.3776 163.526 31.8133 163.729 32.1817C164.136 32.9567 164.466 33.033 167.579 33.033H170.31V31.0891C170.31 28.8784 170.145 28.078 169.586 27.5317C168.951 26.9346 168.328 26.8075 165.978 26.8075H163.831V28.9674ZM168.15 30.3903V31.1272H167.236C166.232 31.1272 165.736 31.0383 165.736 30.8604C165.736 30.7969 166.194 30.7461 166.753 30.7461H167.769V29.9457C167.782 29.2215 167.795 29.1834 167.96 29.3993C168.074 29.5518 168.15 29.9329 168.15 30.3903Z" fill="#F7FCFF"/>
<path d="M173.855 26.9854C173.182 27.2014 172.762 27.519 172.381 28.1034C172.063 28.5735 172.025 28.7387 172.025 29.7424C172.025 30.7715 172.051 30.8858 172.407 31.4067C173.067 32.3342 173.55 32.5248 175.303 32.5248H176.79V30.276L175.875 30.3268C174.732 30.403 174.249 30.2379 174.249 29.7932C174.249 28.8276 176.841 28.6879 177.095 29.6407C177.222 30.1235 177.184 31.6989 177.031 32.1436C176.841 32.6645 176.294 32.9059 175.265 32.9059H174.503V35.0912L176.078 35.0531C177.603 35.0022 177.679 34.9895 178.213 34.6211C179.115 33.9858 179.254 33.5412 179.305 31.2289C179.369 28.3194 179.089 27.5698 177.717 26.9981C177.171 26.7694 174.554 26.7567 173.855 26.9854Z" fill="#F7FCFF"/>
<path d="M183.142 26.8965C182.494 27.1379 182.024 27.4047 181.77 27.6842C181.16 28.3448 181.046 28.7133 181.046 29.9202C181.046 31.1272 181.16 31.4957 181.77 32.1563C182.393 32.8424 182.888 32.9694 185.277 33.0075L187.462 33.0457V31.0256L185.632 30.9748C183.473 30.9239 183.269 30.835 183.269 29.9075C183.269 29.6026 183.333 29.3231 183.396 29.285C183.473 29.2342 183.523 29.4756 183.523 29.9075V30.619H185.15C186.903 30.6063 187.182 30.5301 187.602 29.9075C187.894 29.4502 187.932 28.3575 187.652 27.7731C187.538 27.5444 187.233 27.2395 186.966 27.087C186.534 26.8456 186.293 26.8075 184.908 26.8202C184.044 26.8202 183.244 26.8583 183.142 26.8965ZM185.353 28.7895C185.836 28.9674 185.48 29.0944 184.514 29.0817C183.485 29.069 183.473 29.069 183.905 28.9038C184.387 28.7133 185.035 28.6625 185.353 28.7895Z" fill="#F7FCFF"/>
<path d="M189.495 33.033H191.655V28.942L192.722 28.9801C194.31 29.0563 194.323 29.0817 194.323 31.2797V33.033H196.635L196.584 30.835C196.533 28.4084 196.406 27.9383 195.669 27.392C194.983 26.8838 194.526 26.8075 191.959 26.8075H189.495V33.033Z" fill="#F7FCFF"/>
<path d="M199.786 27.1633C199.316 27.392 198.96 27.6842 198.706 28.0526C198.337 28.5862 198.325 28.6752 198.325 29.9202C198.325 31.1653 198.337 31.2543 198.706 31.7879C198.96 32.1563 199.316 32.4485 199.786 32.6772C200.446 33.0075 200.573 33.0203 202.365 33.033H204.232V30.8731H202.949C201.323 30.8731 200.739 30.7079 200.535 30.1998C200.192 29.3739 200.942 28.9674 202.873 28.9674H204.232V26.8075H202.365C200.573 26.8202 200.446 26.8329 199.786 27.1633Z" fill="#F7FCFF"/>
<path d="M205.63 27.087C205.63 27.2522 206.202 28.5481 206.913 29.9711C208.323 32.8424 208.323 32.8551 207.294 32.9948L206.773 33.0711V35.0658H207.65C208.666 35.0658 208.997 34.9641 209.441 34.5194C209.823 34.151 213.253 27.4174 213.253 27.0489C213.253 26.8329 213.151 26.8075 212.135 26.8075H211.017L210.216 28.5227L209.403 30.2252L209.06 29.501C208.87 29.1071 208.59 28.4846 208.438 28.1415C207.866 26.8202 207.942 26.871 206.723 26.8329C205.655 26.7948 205.63 26.8075 205.63 27.087Z" fill="#F7FCFF"/>
<path d="M89.2525 7.16564C87.8423 7.63572 87.2197 8.01687 86.3431 8.89351C84.9456 10.3038 84.2976 11.9554 84.2976 14.1153C84.2976 15.9448 84.6406 17.0628 85.657 18.5112C86.2923 19.4132 87.0419 20.0358 88.1726 20.5948C89.5575 21.2682 90.2435 21.3444 95.1858 21.3444H99.6706L99.6833 19.5276V17.7235L100.014 18.3968C100.357 19.0956 101.348 20.1882 101.945 20.5059C103.152 21.1792 103.965 21.3317 106.176 21.3444C107.942 21.3444 108.348 21.2936 109.72 20.8743C110.305 20.6964 111.601 19.5911 112.045 18.8923C112.693 17.8632 112.884 17.1517 112.884 15.6907C112.884 14.2804 112.604 13.2894 111.905 12.2857C111.562 11.7775 110.228 10.6722 109.974 10.6722C109.898 10.6722 109.733 10.6214 109.606 10.5579C108.488 9.98614 105.172 9.82098 103.584 10.2784C103.126 10.4181 102.58 10.6087 102.377 10.723C102.186 10.8247 101.907 10.9644 101.767 11.0279C101.335 11.2439 100.395 12.3366 100.026 13.0734L99.6706 13.7849V12.3239H91.1583V15.8812H95.7321V17.3169L93.2927 17.2534C90.4722 17.1899 90.0021 17.0501 89.2017 16.1226C88.071 14.7886 88.1345 13.0862 89.3923 11.8284C90.2308 10.9644 90.5103 10.9263 95.3763 10.9263H99.6706V6.86072L94.8808 6.87342C90.2816 6.88613 90.0403 6.89883 89.2525 7.16564ZM107.611 14.0136C108.513 14.3566 108.945 14.9284 108.945 15.7542C108.945 16.4911 108.399 17.2026 107.7 17.4058C107.179 17.5456 105.388 17.5837 104.778 17.4567C103.863 17.2788 103.19 16.148 103.469 15.2587C103.622 14.7251 104.143 14.1915 104.689 14.0009C105.21 13.823 107.141 13.8357 107.611 14.0136Z" fill="#F7FCFF"/>
<path d="M116.314 10.9263H121.523V21.3444H125.589V10.9263H130.798V6.86072H116.314V10.9263Z" fill="#F7FCFF"/>
<path d="M163.742 7.22916C163.157 7.41974 162.624 7.63572 162.535 7.72466C162.446 7.81359 162.332 7.87712 162.268 7.87712C161.988 7.87712 160.769 9.02056 160.299 9.71934C159.613 10.7357 159.447 11.1042 159.193 12.0698C158.761 13.7214 159.13 16.9739 159.841 17.7997C159.943 17.9013 160.019 18.0411 160.019 18.0792C160.019 18.219 160.413 18.689 161.048 19.3243C161.709 19.9849 162.878 20.7091 163.64 20.9251C164.936 21.3063 165.52 21.3444 169.789 21.3444H174.249V12.3239H165.863V15.8812H170.437V17.3169L167.934 17.2534C165.673 17.1899 165.368 17.1644 164.898 16.9103C164.25 16.5673 163.907 16.2497 163.488 15.589C163.195 15.1317 163.145 14.9157 163.132 14.1025C163.132 13.2767 163.183 13.0734 163.5 12.5398C163.691 12.2095 164.047 11.7902 164.263 11.6251C165.127 10.9644 165.432 10.9263 170.005 10.9263H174.249V6.86072L164.784 6.88613L163.742 7.22916Z" fill="#F7FCFF"/>
<path d="M132.869 10.2911C131.662 10.6468 130.976 11.0407 130.302 11.7521C129.464 12.6288 129.07 13.4673 128.879 14.7251C128.574 16.6944 129.121 18.5493 130.353 19.7563C131.611 20.9886 132.767 21.3317 135.499 21.3317C137.328 21.3317 138.256 21.2046 139.183 20.8108C139.907 20.5059 140.962 19.5911 141.394 18.8923L141.788 18.2571L141.826 21.7001L141.851 25.1559H145.79V20.0866C145.79 15.0554 145.79 15.03 146.082 14.6107C146.234 14.3821 146.565 14.1153 146.806 14.0263C147.365 13.823 149.36 13.7976 149.995 13.9882C151.113 14.3312 151.672 15.3603 151.304 16.4276C151.075 17.1136 150.77 17.3423 149.728 17.6091C149.042 17.787 148.864 17.787 147.911 17.6091C147.327 17.4948 146.781 17.4058 146.704 17.4058C146.59 17.4058 146.552 17.9395 146.552 19.2989V21.1919L147.187 21.3317C147.543 21.4079 148.509 21.4714 149.334 21.4714C152.6 21.4714 154.467 20.2645 155.14 17.7235C155.509 16.3513 155.28 13.9882 154.683 12.8448C154.277 12.0698 152.803 10.6722 152.409 10.6722C152.333 10.6722 152.168 10.6214 152.04 10.5579C151.342 10.1894 150.579 10.1005 148.267 10.1005C146.044 10.1005 145.777 10.1259 144.913 10.4054C143.643 10.8247 142.626 11.7775 142.283 12.8702C142.156 13.264 142.029 13.5944 141.991 13.5944C141.953 13.5944 141.8 13.3275 141.661 13.0099C141.127 11.7902 139.755 10.7484 138.027 10.2402C136.998 9.94802 133.949 9.97343 132.869 10.2911ZM136.96 14.0136C137.874 14.3694 138.294 14.9284 138.294 15.7796C138.294 16.3132 138.23 16.453 137.798 16.8849C137.201 17.4821 136.706 17.5964 135.003 17.5075C134.101 17.4694 133.822 17.4058 133.491 17.1644C133.059 16.8595 132.704 16.1862 132.704 15.6653C132.704 15.03 133.326 14.255 134.038 14.0009C134.558 13.823 136.49 13.8357 136.96 14.0136Z" fill="#F7FCFF"/>
<path fill-rule="evenodd" clip-rule="evenodd" d="M177.692 10.38C177.857 10.3419 178.2 10.2529 178.441 10.1894C178.683 10.1132 179.877 10.0624 181.084 10.0497L183.269 10.037V11.9808L183.714 11.5489C184.743 10.507 186.331 10.037 188.783 10.037C190.689 10.037 191.413 10.1767 192.658 10.7866C193.395 11.1423 194.526 12.1841 194.729 12.705C195.009 13.3911 194.958 12.6796 194.64 11.587C194.462 10.9517 194.323 10.3419 194.323 10.2402C194.323 10.0624 194.589 10.037 196.216 10.037H198.109L198.325 11.0152C198.439 11.5616 198.617 12.2603 198.706 12.578C198.807 12.8956 198.998 13.6579 199.138 14.2931C199.29 14.9157 199.481 15.6907 199.57 15.9829L199.735 16.5419L199.913 15.9829C200.218 15.0173 201.45 11.5107 201.653 11.0152C201.984 10.2402 202.466 10.037 203.915 10.037C205.63 10.037 205.91 10.2402 206.456 11.8157C206.509 11.981 206.648 12.3875 206.825 12.9041C206.987 13.3798 207.182 13.9488 207.371 14.5091L208.095 16.6435L208.311 15.8431C208.425 15.4112 208.794 13.9247 209.124 12.5398L209.721 10.037H213.38V10.38C213.38 10.5833 213.329 10.939 213.266 11.1804C213.172 11.5334 213.007 12.162 212.825 12.8505C212.563 13.8474 212.267 14.97 212.11 15.5636C211.83 16.58 211.296 18.5874 211.144 19.1845C210.953 19.9595 210.661 20.7727 210.534 20.9124C210.178 21.2554 209.772 21.3444 208.387 21.3444C206.278 21.3444 206.138 21.2173 205.376 18.6128C205.312 18.3968 204.982 17.4058 204.626 16.3894C204.271 15.373 203.978 14.5218 203.978 14.4964C203.966 14.2296 202.987 16.8976 202.314 19.0321C201.615 21.2427 201.476 21.3444 199.379 21.3444C198.424 21.3444 197.888 21.3492 197.524 21.1021C197.05 20.7807 196.864 20.0333 196.419 18.2952C196.114 17.1136 195.898 16.3132 195.593 15.246L195.415 14.5218C195.377 14.471 195.358 14.5345 195.371 14.6743C195.371 14.6743 195.491 15.1062 195.415 16.1989C195.339 17.2915 195.263 17.5964 194.882 18.3841C194.196 19.8071 192.95 20.7727 191.299 21.1665C190.346 21.3952 187.119 21.3952 186.166 21.1665C183.257 20.4677 181.63 17.8759 182.1 14.6362L182.215 13.8485L181.059 13.8612C179.725 13.8739 179.127 14.039 178.772 14.5345C178.518 14.8648 178.505 15.0935 178.467 18.1173L178.416 21.3444H174.63V17.6218C174.63 13.5308 174.681 13.2259 175.418 12.0698C175.9 11.3329 176.93 10.5706 177.692 10.38ZM190.803 17.1136C191.959 16.237 191.591 14.471 190.143 13.9882C189.584 13.8103 187.78 13.823 187.233 14.0136C185.823 14.5345 185.505 16.237 186.662 17.1136C187.106 17.4567 187.17 17.4694 188.732 17.4694C190.295 17.4694 190.359 17.4567 190.803 17.1136Z" fill="#F7FCFF"/>
</svg>
