<svg width="73" height="40" viewBox="0 0 73 40" fill="none" xmlns="http://www.w3.org/2000/svg">
<path d="M1.76599 0.12705C1.39755 0.266805 0.559019 1.13074 0.254099 1.65165C0 2.09632 0 2.33771 0 20.0103V37.9243L0.279509 38.4452C0.597133 39.0424 1.44837 39.8555 1.86763 39.9571C2.03279 39.9952 17.7107 40.0079 36.7301 39.9952L71.3003 39.9571L71.7577 39.576C72.0118 39.36 72.3929 38.8518 72.5962 38.4452L72.99 37.6956V20.0103V2.32501L72.6089 1.57542C72.3294 1.0291 72.0626 0.711479 71.6179 0.40656L71.0081 8.12812e-07L36.5141 0.0127058C17.5456 0.0127058 1.91845 0.0635256 1.76599 0.12705ZM69.8773 20.0103V36.5268L53.9707 36.5649L38.0514 36.5903V22.8689V9.14758H41.9645L45.8649 9.13487L46.9067 7.90249C47.4785 7.22913 48.101 6.49224 48.2916 6.28896C48.9268 5.56478 49.2317 5.1201 49.2317 4.91682C49.2317 4.71354 48.2408 4.70084 36.0821 4.70084C23.339 4.70084 22.9325 4.71354 22.9325 4.94223C22.9325 5.14551 23.1993 5.56478 23.6312 6.04756C23.6948 6.1365 24.2665 6.86068 24.9017 7.6738L26.0325 9.14758H30.4538H34.8751V22.8689V36.5903L18.9685 36.5649L3.04919 36.5268L3.01108 20.1374C2.99837 11.1168 3.01108 3.67174 3.04919 3.5828C3.08731 3.45575 9.84635 3.43034 36.4887 3.45575L69.8773 3.49387V20.0103Z" fill="#F7FCFF"/>
<path d="M6.28906 11.1168V13.3402H14.7125C22.5895 13.3402 23.174 13.3529 23.7965 13.5816C24.165 13.7086 24.5334 13.8738 24.6223 13.9627C24.6986 14.0389 24.8129 14.1025 24.8764 14.1025C25.1305 14.1025 26.0834 14.9918 26.5281 15.6525C27.9891 17.7615 28.383 21.8017 27.4047 24.5205C26.9219 25.8673 25.7785 27.2394 24.6986 27.7857C23.0977 28.5734 23.7076 28.5226 16.6182 28.5607L10.1006 28.5988V25.8673V23.123H15.3731H20.6457V20.9631V18.8033H13.4674H6.28906V25.8673V32.9185L15.4112 32.8677C25.3592 32.8169 24.851 32.855 26.49 32.0419C27.392 31.5972 27.6461 31.4447 28.1289 31.0636C30.365 29.3103 31.5847 26.7312 31.9531 23.0086C32.5248 17.2279 31.1019 12.8701 27.8875 10.5959C26.833 9.8463 25.9945 9.47785 24.5461 9.13482C23.6186 8.90613 22.9453 8.89342 14.9157 8.89342H6.28906V11.1168Z" fill="#F7FCFF"/>
<path d="M48.0883 9.084C48.0883 9.18564 47.974 9.27457 47.8469 9.27457C47.5039 9.27457 45.8141 10.0623 45.0772 10.5578C43.7559 11.4598 42.4473 13.1623 41.8375 14.7885C40.6432 17.9267 40.5289 22.6402 41.558 26.0451C41.9264 27.2394 42.5871 28.6624 43.108 29.3484C43.794 30.2632 45.5346 31.7624 45.9158 31.7624C45.9666 31.7624 46.0682 31.8259 46.1572 31.9148C46.3096 32.0673 46.767 32.2452 47.8977 32.6136C48.4568 32.7915 49.6764 32.8296 57.5916 32.8677L66.6376 32.9185V25.8546V18.8033H59.4593H52.281V20.9631V23.123H57.5535H62.8261V25.8673V28.5988L56.3847 28.5607C49.1174 28.5099 49.4223 28.548 47.8215 27.4935C46.8941 26.8837 46.5383 26.4771 45.9285 25.3464C45.2678 24.114 45.0518 23.0595 45.0391 21.0394C45.0391 18.6635 45.4457 17.0881 46.424 15.6525C47.1482 14.598 47.8723 14.0516 49.2191 13.5816C49.867 13.3529 50.3879 13.3402 58.2777 13.3402H66.6376V11.1168V8.89342H57.3629C49.2064 8.89342 48.0883 8.91883 48.0883 9.084Z" fill="#F7FCFF"/>
</svg>
