<svg width="32" height="32" viewBox="0 0 32 32" fill="none" xmlns="http://www.w3.org/2000/svg">
<path d="M24.6153 4.89899C22.7944 4.89899 21.1664 5.73961 20.0979 7.0528H3.61531C2.487 7.0528 1.5625 7.97749 1.5625 9.10574V25.2597C1.5625 26.388 2.487 27.3125 3.61531 27.3125H26.2307C27.3591 27.3125 28.2836 26.388 28.2836 25.2597V15.2387C29.5969 14.1702 30.4375 12.5422 30.4375 10.7212C30.4375 7.51092 27.8256 4.89899 24.6153 4.89899ZM24.6153 5.77399C27.3528 5.77399 29.5625 7.9838 29.5625 10.7212C29.5625 11.932 29.13 13.0393 28.4109 13.898L21.4386 6.92555C22.2973 6.20655 23.4046 5.77399 24.6153 5.77399ZM20.8197 7.5443L27.7922 14.5168C26.9334 15.2358 25.8261 15.6682 24.6153 15.6682C21.8779 15.6682 19.6682 13.4585 19.6682 10.7212C19.6682 9.51042 20.1007 8.40305 20.8197 7.5443H20.8197ZM3.61531 7.9278H19.5084C19.0528 8.75755 18.7932 9.70961 18.7932 10.7212C18.7932 13.9315 21.4051 16.5432 24.6153 16.5432C25.6269 16.5432 26.5789 16.2837 27.4086 15.8281V22.5522L23.2524 18.198C22.6786 17.5969 21.7178 17.5575 21.0967 18.1097L17.4228 21.3754L11.4012 12.7731C10.9978 12.1967 10.4213 11.8587 9.8225 11.8731C9.22388 11.8875 8.66413 12.2531 8.28894 12.8482L2.4375 22.1299V9.10574C2.43678 8.95086 2.46675 8.79737 2.52569 8.65414C2.58462 8.51091 2.67135 8.38077 2.78086 8.27125C2.89037 8.16173 3.0205 8.07498 3.16372 8.01603C3.30695 7.95708 3.46043 7.9271 3.61531 7.9278ZM9.84363 12.7479C10.1079 12.7415 10.4062 12.8775 10.6845 13.275L16.9877 22.2798C17.0231 22.3304 17.0688 22.3729 17.1218 22.4045C17.1748 22.4362 17.2339 22.4563 17.2952 22.4634C17.3565 22.4706 17.4186 22.4648 17.4775 22.4462C17.5364 22.4277 17.5907 22.3969 17.6368 22.3559L21.6781 18.7637C21.9454 18.526 22.3724 18.5435 22.6194 18.8022L27.4086 23.8194V25.2597C27.4093 25.4145 27.3793 25.568 27.3204 25.7113C27.2614 25.8545 27.1747 25.9846 27.0652 26.0941C26.9557 26.2036 26.8256 26.2904 26.6823 26.3493C26.5391 26.4082 26.3856 26.4382 26.2307 26.4375H3.61531C3.46044 26.4382 3.30696 26.4082 3.16373 26.3493C3.02051 26.2904 2.89038 26.2036 2.78087 26.0941C2.67135 25.9846 2.58462 25.8545 2.52569 25.7113C2.46675 25.568 2.43678 25.4145 2.4375 25.2597V23.7706L9.02919 13.315C9.28794 12.9045 9.57938 12.7544 9.84363 12.748V12.7479Z" fill="#F7FCFF"/>
</svg>
