<svg width="32" height="32" viewBox="0 0 32 32" fill="none" xmlns="http://www.w3.org/2000/svg">
<path d="M24.625 30C24.4145 30.0008 24.2091 29.9352 24.0381 29.8125L16 23.985L7.96187 29.8125C7.79014 29.937 7.58325 30.0038 7.37111 30.003C7.15897 30.0022 6.95256 29.934 6.78175 29.8082C6.61093 29.6824 6.48454 29.5055 6.42086 29.3032C6.35718 29.1008 6.3595 28.8834 6.4275 28.6825L9.5625 19.3969L1.4375 13.825C1.2615 13.7044 1.12867 13.5308 1.05842 13.3293C0.988158 13.1279 0.984153 12.9093 1.04699 12.7054C1.10982 12.5016 1.2362 12.3232 1.40766 12.1962C1.57912 12.0693 1.78667 12.0006 2 12H12.0237L15.0487 2.69062C15.1139 2.48963 15.2411 2.31445 15.412 2.19021C15.5829 2.06596 15.7887 1.99904 16 1.99904C16.2113 1.99904 16.4171 2.06596 16.588 2.19021C16.7589 2.31445 16.8861 2.48963 16.9512 2.69062L19.9762 12.0031H30C30.2136 12.003 30.4216 12.0713 30.5936 12.198C30.7655 12.3247 30.8924 12.5031 30.9557 12.7071C31.0189 12.9111 31.0151 13.13 30.945 13.3317C30.8748 13.5335 30.7418 13.7074 30.5656 13.8281L22.4375 19.3969L25.5706 28.68C25.6214 28.8303 25.6357 28.9905 25.6123 29.1474C25.5889 29.3043 25.5285 29.4534 25.4361 29.5824C25.3437 29.7113 25.222 29.8165 25.081 29.8891C24.9399 29.9617 24.7836 29.9997 24.625 30Z" fill="#FFD700"/>
</svg>
