<svg width="32" height="32" viewBox="0 0 32 32" fill="none" xmlns="http://www.w3.org/2000/svg">
<path d="M24.6241 29.5L24.623 29.5C24.5181 29.5004 24.4157 29.4678 24.3304 29.4068C24.3301 29.4066 24.3299 29.4064 24.3296 29.4063L16.2935 23.5802L16 23.3674L15.7065 23.5802L7.66839 29.4077L7.66831 29.4078C7.58244 29.47 7.479 29.5034 7.37293 29.503C7.26686 29.5026 7.16365 29.4685 7.07824 29.4056C6.99283 29.3427 6.92964 29.2543 6.8978 29.1531C6.86596 29.0519 6.86712 28.9432 6.90112 28.8428L6.90123 28.8424L10.0362 19.5568L10.1572 19.1984L9.84528 18.9845L1.72028 13.4126L1.72006 13.4125C1.63206 13.3522 1.56565 13.2654 1.53052 13.1647C1.49539 13.064 1.49339 12.9547 1.52481 12.8527C1.55622 12.7508 1.61941 12.6616 1.70514 12.5981C1.79071 12.5348 1.89427 12.5004 2.00072 12.5H12.0237H12.387L12.4993 12.1545L15.5243 2.84514L15.5244 2.84484C15.557 2.74434 15.6205 2.65675 15.706 2.59463C15.7914 2.53251 15.8944 2.49905 16 2.49905C16.1056 2.49905 16.2086 2.53251 16.294 2.59463C16.3795 2.65675 16.443 2.74434 16.4756 2.84484L16.4757 2.8451L19.5007 12.1576L19.6129 12.5031H19.9762H30H30.0002C30.107 12.5031 30.211 12.5372 30.297 12.6006C30.383 12.6639 30.4465 12.7531 30.4781 12.8551C30.5097 12.9571 30.5078 13.0666 30.4727 13.1674C30.4376 13.2683 30.3712 13.3553 30.2831 13.4156L30.283 13.4156L22.1549 18.9844L21.8428 19.1983L21.9638 19.5568L25.0969 28.8399L25.0969 28.84C25.1223 28.9151 25.1294 28.9953 25.1177 29.0737C25.1061 29.1522 25.0759 29.2267 25.0297 29.2912C24.9835 29.3557 24.9226 29.4082 24.8521 29.4445C24.7816 29.4808 24.7034 29.4999 24.6241 29.5Z" stroke="#FFD700"/>
</svg>
