<svg width="32" height="32" viewBox="0 0 32 32" fill="none" xmlns="http://www.w3.org/2000/svg">
<rect width="32" height="32" fill="#272727"/>
<path d="M2.67746 8.37419C2.53612 8.4278 2.21445 8.75922 2.09748 8.95905C2 9.12963 2 9.22223 2 16.0017V22.8738L2.10722 23.0736C2.22907 23.3027 2.55561 23.6146 2.71645 23.6536C2.77981 23.6682 8.79408 23.6731 16.0902 23.6682L29.3518 23.6536L29.5272 23.5074C29.6247 23.4245 29.7709 23.2295 29.8489 23.0736L30 22.786V16.0017V9.21736L29.8538 8.9298C29.7466 8.72023 29.6442 8.59839 29.4736 8.48141L29.2397 8.32545L16.0073 8.33033C8.73072 8.33033 2.73594 8.34982 2.67746 8.37419ZM28.8059 16.0017V22.3376L22.7039 22.3523L16.597 22.362V17.0983V11.8346H18.0982L19.5944 11.8297L19.9941 11.357C20.2134 11.0986 20.4522 10.816 20.5253 10.738C20.769 10.4602 20.886 10.2896 20.886 10.2116C20.886 10.1336 20.5058 10.1288 15.8416 10.1288C10.9532 10.1288 10.7972 10.1336 10.7972 10.2214C10.7972 10.2993 10.8996 10.4602 11.0653 10.6454C11.0896 10.6795 11.309 10.9573 11.5527 11.2692L11.9864 11.8346H13.6825H15.3786V17.0983V22.362L9.27659 22.3523L3.16971 22.3376L3.15509 16.0504C3.15022 12.59 3.15509 9.73398 3.16971 9.69987C3.18433 9.65113 5.7772 9.64138 15.9976 9.65113L28.8059 9.66575V16.0017Z" fill="#F7FCFF"/>
<path d="M4.4126 12.59V13.4429H7.64393C10.6657 13.4429 10.8899 13.4478 11.1287 13.5355C11.27 13.5843 11.4114 13.6476 11.4455 13.6817C11.4747 13.711 11.5186 13.7354 11.543 13.7354C11.6404 13.7354 12.006 14.0765 12.1766 14.33C12.7371 15.139 12.8881 16.6889 12.5129 17.7319C12.3277 18.2485 11.889 18.7749 11.4747 18.9844C10.8606 19.2866 11.0946 19.2671 8.375 19.2817L5.87474 19.2964V18.2485V17.1958H7.89737H9.92V16.3672V15.5387H7.1663H4.4126V18.2485V20.9535L7.91199 20.934C11.7282 20.9145 11.5332 20.9291 12.1619 20.6172C12.508 20.4466 12.6055 20.3881 12.7907 20.2419C13.6485 19.5693 14.1163 18.5799 14.2577 17.1519C14.477 14.9343 13.9311 13.2626 12.6981 12.3902C12.2935 12.1026 11.9719 11.9613 11.4163 11.8297C11.0605 11.742 10.8022 11.7371 7.72191 11.7371H4.4126V12.59Z" fill="#F7FCFF"/>
<path d="M20.4475 11.8102C20.4475 11.8492 20.4036 11.8833 20.3549 11.8833C20.2233 11.8833 19.575 12.1855 19.2924 12.3756C18.7855 12.7216 18.2835 13.3747 18.0495 13.9985C17.5914 15.2024 17.5475 17.0106 17.9423 18.3167C18.0837 18.7749 18.3371 19.3207 18.5369 19.5839C18.8001 19.9348 19.4678 20.5099 19.614 20.5099C19.6335 20.5099 19.6725 20.5343 19.7066 20.5684C19.7651 20.6269 19.9406 20.6951 20.3744 20.8365C20.5888 20.9047 21.0567 20.9193 24.0931 20.934L27.5632 20.9535V18.2436V15.5387H24.8095H22.0558V16.3672V17.1958H24.0784H26.1011V18.2485V19.2964L23.6301 19.2817C20.8422 19.2623 20.9592 19.2769 20.3451 18.8723C19.9893 18.6384 19.8529 18.4824 19.6189 18.0487C19.3655 17.5759 19.2826 17.1714 19.2777 16.3965C19.2777 15.4851 19.4337 14.8807 19.809 14.33C20.0868 13.9254 20.3646 13.7159 20.8812 13.5355C21.1298 13.4478 21.3296 13.4429 24.3562 13.4429H27.5632V12.59V11.7371H24.0053C20.8764 11.7371 20.4475 11.7468 20.4475 11.8102Z" fill="#F7FCFF"/>
</svg>
