<svg width="24" height="24" viewBox="0 0 24 24" fill="none" xmlns="http://www.w3.org/2000/svg">
<g clip-path="url(#clip0_1518_74)">
<path fill-rule="evenodd" clip-rule="evenodd" d="M14.8651 13.403C14.4109 13.5886 14.1208 14.2997 13.8264 14.663C13.6754 14.8491 13.4954 14.8781 13.2634 14.7848C11.5586 14.1056 10.2517 12.968 9.31091 11.3991C9.15154 11.1558 9.18013 10.9636 9.37232 10.7377C9.65638 10.403 10.0136 10.0228 10.0904 9.57187C10.2611 8.57437 8.95701 5.48016 7.23482 6.88219C2.27919 10.9205 15.5017 21.6309 17.8881 15.8381C18.5631 14.1961 15.6179 13.0945 14.8651 13.403ZM12.0001 21.9037C10.2475 21.9037 8.52294 21.4378 7.0131 20.5556C6.77076 20.4136 6.47779 20.3761 6.20685 20.4497L2.92607 21.3502L4.06888 18.8325C4.14532 18.6644 4.17595 18.4791 4.15768 18.2954C4.1394 18.1116 4.07287 17.936 3.96482 17.7863C2.74232 16.0917 2.09591 14.0911 2.09591 12C2.09591 6.53859 6.53873 2.09578 12.0001 2.09578C17.4615 2.09578 21.9039 6.53859 21.9039 12C21.9039 17.4609 17.4611 21.9037 12.0001 21.9037ZM12.0001 0C5.38326 0 0.000131482 5.38312 0.000131482 12C0.000131482 14.3278 0.661069 16.5633 1.91685 18.5034L0.0938815 22.5183C0.0115062 22.6996 -0.0175164 22.9007 0.01021 23.0979C0.0379363 23.2952 0.121265 23.4804 0.250444 23.632C0.348966 23.7473 0.471296 23.8399 0.609019 23.9035C0.746742 23.967 0.896591 23.9999 1.04826 24C1.72419 24 5.40998 22.8417 6.34794 22.5844C8.08185 23.512 10.0267 24 12.0001 24C18.6165 24 24.0001 18.6164 24.0001 12C24.0001 5.38312 18.6165 0 12.0001 0Z" fill="#286660"/>
</g>
<defs>
<clipPath id="clip0_1518_74">
<rect width="24" height="24" fill="white"/>
</clipPath>
</defs>
</svg>
