<svg width="24" height="24" viewBox="0 0 24 24" fill="none" xmlns="http://www.w3.org/2000/svg">
<g clip-path="url(#clip0_1518_300)">
<path d="M23.6654 6.28148C23.5394 5.23058 22.5491 4.22286 21.5129 4.08786C15.1955 3.30275 8.80531 3.30275 2.48798 4.08786C1.45091 4.22257 0.460541 5.23058 0.334562 6.28148C-0.111521 10.133 -0.111521 13.8674 0.334562 17.718C0.460541 18.7689 1.45091 19.7776 2.48798 19.9116C8.80531 20.6968 15.1955 20.6968 21.5129 19.9116C22.5491 19.7778 23.5394 18.7689 23.6654 17.718C24.1115 13.8678 24.1115 10.133 23.6654 6.28148ZM9.99985 16.0005V8.00024L16 12.0005L9.99985 16.0005Z" fill="#286660"/>
</g>
<defs>
<clipPath id="clip0_1518_300">
<rect width="24" height="24" fill="white"/>
</clipPath>
</defs>
</svg>
